<svg xmlns="http://www.w3.org/2000/svg" xmlns:xlink="http://www.w3.org/1999/xlink" version="1.1" x="0px" y="0px" viewBox="0 0 64 64" enable-background="new 0 0 64 64" xml:space="preserve"><path d="M38.46,59H5.981c-0.553,0-1-0.448-1-1v-4c0-0.552,0.447-1,1-1H38.46c0.553,0,1,0.448,1,1s-0.447,1-1,1H6.981v2H38.46  c0.553,0,1,0.448,1,1S39.013,59,38.46,59z"/><path d="M34.781,45.668c-0.553,0-1-0.448-1-1V16.481c0-0.552,0.447-1,1-1s1,0.448,1,1v28.187  C35.781,45.221,35.334,45.668,34.781,45.668z"/><path d="M30.58,45.85c-0.532,0-0.975-0.42-0.998-0.957c-0.023-0.552,0.404-1.018,0.956-1.042l6.871-0.297  c0.544-0.014,1.019,0.404,1.042,0.956s-0.404,1.018-0.956,1.042l-6.871,0.297C30.609,45.849,30.595,45.85,30.58,45.85z"/><path d="M53.981,37.291c-0.553,0-1-0.448-1-1V19.958c0-0.552,0.447-1,1-1s1,0.448,1,1v16.333  C54.981,36.843,54.534,37.291,53.981,37.291z"/><path d="M47.481,40.854c-0.553,0-1-0.448-1-1V17.779c0-0.552,0.447-1,1-1s1,0.448,1,1v22.074  C48.481,40.406,48.034,40.854,47.481,40.854z"/><path d="M40.981,35.8c-0.553,0-1-0.448-1-1V6c0-0.552,0.447-1,1-1s1,0.448,1,1v28.8C41.981,35.353,41.534,35.8,40.981,35.8z"/><path d="M9.98,38.298c-0.516,0-0.954-0.396-0.996-0.92c-0.044-0.55,0.366-1.033,0.917-1.077l31.385-2.529  c0.566-0.044,1.033,0.366,1.077,0.917s-0.366,1.033-0.917,1.077l-31.385,2.529C10.034,38.297,10.007,38.298,9.98,38.298z"/><path d="M42.46,59c-0.553,0-1-0.448-1-1v-9.271c0-0.552,0.447-1,1-1s1,0.448,1,1V58C43.46,58.553,43.013,59,42.46,59z"/><path d="M46.503,42.532c-0.04,0-0.081-0.002-0.122-0.007c-0.549-0.067-0.938-0.566-0.871-1.114c0.155-1.275,1.042-2.368,2.258-2.784  c0.52-0.179,1.092,0.1,1.27,0.623c0.179,0.522-0.101,1.091-0.623,1.27c-0.495,0.169-0.856,0.614-0.92,1.133  C47.433,42.16,47.001,42.532,46.503,42.532z"/><path d="M37.508,45.905c-0.466,0-0.883-0.327-0.979-0.802c-0.344-1.7,0.174-4.431,2.377-4.896c0.54-0.112,1.07,0.232,1.185,0.772  c0.114,0.541-0.231,1.071-0.771,1.185c-0.774,0.164-1.012,1.639-0.829,2.542c0.109,0.542-0.241,1.069-0.782,1.178  C37.64,45.899,37.573,45.905,37.508,45.905z"/><path d="M39.11,42.186c-0.464,0-0.88-0.324-0.978-0.795c-0.226-1.078-0.095-2.74,0.725-3.841c0.486-0.654,1.154-1.035,1.931-1.102  c0.559-0.062,1.034,0.36,1.082,0.911s-0.36,1.035-0.91,1.082c-0.136,0.012-0.314,0.057-0.498,0.303  c-0.404,0.544-0.508,1.585-0.372,2.238c0.113,0.541-0.233,1.07-0.774,1.183C39.247,42.179,39.178,42.186,39.11,42.186z"/><path d="M47.412,45.905c-0.066,0-0.135-0.006-0.202-0.021c-0.541-0.111-0.89-0.64-0.778-1.181c0.186-0.903-0.05-2.376-0.828-2.54  c-0.541-0.113-0.887-0.644-0.773-1.184s0.645-0.885,1.184-0.773c2.213,0.464,2.727,3.198,2.377,4.899  C48.293,45.58,47.877,45.905,47.412,45.905z"/><path d="M44.047,38.444c-0.074,0-0.149-0.008-0.224-0.025c-0.539-0.123-0.875-0.659-0.752-1.198  c0.118-0.516,0.064-1.324-0.229-1.782c-0.129-0.2-0.25-0.248-0.342-0.266c-0.094-0.02-0.14-0.01-0.209,0.05  c-0.282,0.234-0.518,0.928-0.505,1.485c0.003,0.174,0.024,0.346,0.063,0.513c0.123,0.538-0.213,1.075-0.751,1.198  c-0.539,0.124-1.074-0.213-1.198-0.751c-0.068-0.299-0.106-0.608-0.113-0.917c-0.022-0.998,0.348-2.334,1.224-3.064  c0.536-0.447,1.209-0.613,1.895-0.472c0.668,0.138,1.228,0.534,1.62,1.144c0.639,0.994,0.709,2.378,0.496,3.309  C44.915,38.131,44.503,38.444,44.047,38.444z"/><path d="M45.81,42.186c-0.068,0-0.139-0.007-0.208-0.022c-0.541-0.114-0.886-0.645-0.771-1.186c0.138-0.648,0.035-1.687-0.37-2.233  c-0.185-0.248-0.363-0.293-0.499-0.305c-0.551-0.047-0.958-0.531-0.911-1.082c0.046-0.55,0.521-0.963,1.081-0.912  c0.778,0.066,1.447,0.449,1.935,1.106c0.82,1.105,0.949,2.765,0.722,3.84C46.688,41.864,46.271,42.186,45.81,42.186z"/><path d="M47.539,52.471c-0.335,0-0.661-0.167-0.851-0.473c-0.291-0.469-0.146-1.086,0.322-1.377  c0.654-0.406,1.067-1.441,1.025-2.575c-0.038-1.059-0.455-1.923-1.089-2.255c-0.489-0.256-0.679-0.861-0.422-1.35  c0.256-0.488,0.861-0.679,1.35-0.421c1.287,0.675,2.095,2.153,2.16,3.954c0.068,1.885-0.687,3.55-1.97,4.347  C47.901,52.422,47.719,52.471,47.539,52.471z"/><path d="M37.382,52.471c-0.179,0-0.36-0.048-0.524-0.149c-1.281-0.791-2.037-2.449-1.974-4.328c0.063-1.809,0.869-3.294,2.159-3.973  c0.487-0.256,1.094-0.07,1.351,0.419c0.258,0.489,0.069,1.093-0.419,1.351c-0.637,0.335-1.055,1.206-1.092,2.272  c-0.038,1.128,0.374,2.156,1.025,2.558c0.47,0.29,0.615,0.906,0.325,1.376C38.045,52.302,37.717,52.471,37.382,52.471z"/><path d="M51.439,59c-0.553,0-1-0.448-1-1V47.117c0-0.552,0.447-1,1-1s1,0.448,1,1V58C52.439,58.553,51.992,59,51.439,59z"/><path d="M48.09,40.573c-0.466,0-0.882-0.326-0.979-0.8c-0.222-1.084-0.087-2.75,0.73-3.843c0.485-0.649,1.151-1.028,1.926-1.094  c0.559-0.056,1.034,0.36,1.082,0.911s-0.36,1.035-0.91,1.082c-0.136,0.012-0.314,0.056-0.496,0.299  c-0.403,0.54-0.508,1.586-0.373,2.247c0.11,0.541-0.238,1.069-0.779,1.18C48.224,40.567,48.156,40.573,48.09,40.573z"/><path d="M56.392,44.292c-0.068,0-0.137-0.007-0.206-0.021c-0.541-0.113-0.887-0.644-0.773-1.184c0.19-0.91-0.074-2.375-0.83-2.536  c-0.541-0.114-0.886-0.645-0.771-1.186c0.114-0.54,0.647-0.887,1.186-0.771c2.223,0.471,2.729,3.204,2.373,4.903  C57.271,43.969,56.854,44.292,56.392,44.292z"/><path d="M49.853,36.832c-0.459,0-0.872-0.318-0.976-0.784c-0.066-0.301-0.104-0.605-0.111-0.905c-0.023-1,0.346-2.335,1.223-3.067  c0.536-0.448,1.21-0.615,1.896-0.474c0.665,0.137,1.224,0.529,1.614,1.133c0.638,0.984,0.713,2.373,0.505,3.313  c-0.12,0.539-0.655,0.879-1.192,0.761c-0.539-0.12-0.88-0.653-0.761-1.192c0.117-0.527,0.063-1.342-0.23-1.794  c-0.127-0.196-0.248-0.242-0.34-0.261s-0.139-0.009-0.21,0.05c-0.281,0.235-0.518,0.928-0.504,1.483  c0.004,0.17,0.025,0.346,0.064,0.521c0.119,0.54-0.222,1.073-0.761,1.192C49.996,36.824,49.924,36.832,49.853,36.832z"/><path d="M54.79,40.573c-0.066,0-0.133-0.006-0.2-0.02c-0.541-0.11-0.891-0.638-0.78-1.179c0.134-0.662,0.029-1.709-0.374-2.249  c-0.182-0.242-0.359-0.286-0.494-0.297c-0.55-0.047-0.958-0.531-0.911-1.082c0.046-0.55,0.521-0.958,1.081-0.912  c0.773,0.066,1.439,0.443,1.925,1.092c0.818,1.094,0.954,2.76,0.732,3.846C55.673,40.247,55.256,40.573,54.79,40.573z"/><path d="M56.519,50.858c-0.334,0-0.661-0.167-0.851-0.473c-0.291-0.469-0.147-1.085,0.322-1.377  c0.656-0.407,1.068-1.446,1.026-2.584c-0.04-1.056-0.457-1.916-1.088-2.245c-0.49-0.255-0.68-0.859-0.425-1.349  c0.255-0.489,0.858-0.682,1.349-0.424c1.287,0.671,2.095,2.145,2.162,3.944c0.071,1.89-0.684,3.56-1.97,4.358  C56.881,50.81,56.698,50.858,56.519,50.858z"/><path d="M9.981,55c-0.553,0-1-0.448-1-1V20.006c0-0.552,0.447-1,1-1s1,0.448,1,1V54C10.981,54.553,10.534,55,9.981,55z"/><path d="M7.98,12.536c-0.479,0-0.903-0.346-0.985-0.834c-0.091-0.545,0.276-1.061,0.821-1.152l33-5.535  c0.542-0.094,1.06,0.276,1.151,0.821c0.091,0.545-0.276,1.061-0.821,1.152l-33,5.535C8.091,12.531,8.035,12.536,7.98,12.536z"/><path d="M7.981,21.29c-0.553,0-1-0.448-1-1v-8.754c0-0.552,0.447-1,1-1s1,0.448,1,1v8.754C8.981,20.842,8.534,21.29,7.981,21.29z"/><path d="M7.98,21.29c-0.49,0-0.918-0.36-0.989-0.859c-0.077-0.547,0.303-1.053,0.85-1.131l33-4.689  c0.546-0.081,1.053,0.303,1.131,0.85c0.077,0.547-0.303,1.053-0.85,1.131l-33,4.689C8.074,21.287,8.027,21.29,7.98,21.29z"/><path d="M55.981,13.287c-0.129,0-0.26-0.025-0.387-0.078l-15-6.286c-0.509-0.213-0.749-0.799-0.535-1.309  c0.213-0.509,0.797-0.747,1.309-0.536l15,6.286c0.509,0.213,0.749,0.799,0.535,1.309C56.743,13.056,56.372,13.287,55.981,13.287z"/><path d="M55.981,21.629c-0.553,0-1-0.448-1-1v-8.343c0-0.552,0.447-1,1-1s1,0.448,1,1v8.343  C56.981,21.181,56.534,21.629,55.981,21.629z"/><path d="M55.981,21.629c-0.105,0-0.212-0.017-0.317-0.052l-15-5.028c-0.524-0.176-0.807-0.743-0.631-1.266  c0.177-0.523,0.742-0.804,1.266-0.63l15,5.028c0.524,0.176,0.807,0.743,0.631,1.266C56.789,21.365,56.399,21.629,55.981,21.629z"/><path d="M22.382,41.886c-0.553,0-1-0.448-1-1V18.244c0-0.552,0.447-1,1-1s1,0.448,1,1v22.642  C23.382,41.438,22.935,41.886,22.382,41.886z"/><path d="M28.581,41.561c-0.553,0-1-0.448-1-1V17.363c0-0.552,0.447-1,1-1s1,0.448,1,1v23.198  C29.581,41.113,29.134,41.561,28.581,41.561z"/><path d="M16.182,55c-0.553,0-1-0.448-1-1V19.125c0-0.552,0.447-1,1-1s1,0.448,1,1V54C17.182,54.553,16.734,55,16.182,55z"/><path d="M20.382,55c-0.553,0-1-0.448-1-1v-13.01c0-0.552,0.447-1,1-1s1,0.448,1,1V54C21.382,54.553,20.935,55,20.382,55z"/><path d="M20.381,41.991c-0.528,0-0.97-0.414-0.998-0.948c-0.028-0.551,0.396-1.022,0.946-1.051l10.199-0.535  c0.574-0.038,1.022,0.395,1.052,0.946c0.028,0.551-0.396,1.022-0.946,1.051l-10.199,0.535C20.416,41.99,20.398,41.991,20.381,41.991  z"/><path d="M30.581,55c-0.553,0-1-0.448-1-1V40.456c0-0.552,0.447-1,1-1s1,0.448,1,1V54C31.581,54.553,31.134,55,30.581,55z"/><path d="M25.481,55c-0.553,0-1-0.448-1-1V40.723c0-0.552,0.447-1,1-1s1,0.448,1,1V54C26.481,54.553,26.034,55,25.481,55z"/><path d="M9.98,46.739c-0.532,0-0.975-0.42-0.998-0.957c-0.023-0.552,0.404-1.018,0.956-1.042l10.4-0.449  c0.552-0.004,1.018,0.404,1.042,0.956c0.023,0.552-0.404,1.018-0.956,1.042l-10.4,0.449C10.01,46.739,9.995,46.739,9.98,46.739z"/><path d="M9.98,29.712c-0.502,0-0.935-0.377-0.992-0.887c-0.063-0.549,0.332-1.044,0.881-1.106l31-3.511  c0.549-0.068,1.043,0.333,1.105,0.881c0.063,0.549-0.332,1.044-0.881,1.106l-31,3.511C10.056,29.71,10.018,29.712,9.98,29.712z"/><path d="M53.982,29.469c-0.081,0-0.163-0.01-0.245-0.03l-13-3.268c-0.535-0.135-0.86-0.678-0.726-1.213  c0.135-0.536,0.679-0.858,1.214-0.726l13,3.268c0.535,0.135,0.86,0.678,0.726,1.213C54.837,29.167,54.43,29.469,53.982,29.469z"/></svg>